####
#
# OBJ File Generated by Meshlab
#
####
# Object simple_fingertip_custom.obj
#
# Vertices: 188
# Faces: 299
#
####
vn 0.272165 0.952579 -0.136082
v 0.017300 0.010000 -0.010000
vn -0.000000 0.275420 -0.961324
v 0.000000 0.010000 -0.010000
vn 0.207684 0.556102 -0.804747
v 0.002393 0.010000 -0.009709
vn 0.428687 0.448757 -0.784120
v 0.004647 0.010000 -0.008855
vn 0.564763 0.556290 -0.609576
v 0.006631 0.010000 -0.007485
vn 0.680630 0.556110 -0.476953
v 0.008230 0.010000 -0.005681
vn 0.827528 0.448617 0.337550
v 0.009350 0.010000 0.003546
vn 0.680630 0.556110 0.476953
v 0.008230 0.010000 0.005681
vn 0.583948 0.448760 0.676476
v 0.006631 0.010000 0.007485
vn 0.372353 0.556222 0.742947
v 0.004647 0.010000 0.008855
vn 0.237007 0.316890 0.918373
v 0.002393 0.010000 0.009709
vn 0.136083 0.952579 0.272165
v 0.017300 0.010000 0.010000
vn 0.766283 0.556797 -0.320606
v 0.009350 0.010000 -0.003546
vn 0.790576 0.601836 -0.113067
v 0.009927 0.010000 -0.001205
vn 0.884806 0.448673 0.125738
v 0.009927 0.010000 0.001205
vn 0.436437 -0.872871 0.218219
v 0.017300 -0.000000 0.010000
vn 0.333333 -0.666667 -0.666667
v 0.017300 0.000000 -0.010000
vn -0.235702 0.942809 -0.235702
v -0.017300 0.010000 -0.010000
vn -0.235702 -0.942809 -0.235702
v -0.017300 0.000000 -0.010000
vn -0.408249 -0.816496 0.408249
v -0.017300 0.000000 0.010000
vn -0.140028 0.980196 0.140028
v -0.017300 0.010000 0.010000
vn 0.000000 0.243582 0.969880
v 0.000000 0.010000 0.010000
vn -0.207684 0.556102 0.804747
v -0.002393 0.010000 0.009709
vn -0.766283 0.556797 -0.320606
v -0.009350 0.010000 -0.003546
vn -0.680630 0.556110 -0.476953
v -0.008230 0.010000 -0.005681
vn -0.556791 0.556480 -0.616696
v -0.006631 0.010000 -0.007485
vn -0.401601 0.556977 -0.726976
v -0.004647 0.010000 -0.008855
vn -0.219862 0.556648 -0.801127
v -0.002393 0.010000 -0.009709
vn -0.428687 0.448757 0.784120
v -0.004647 0.010000 0.008855
vn -0.570403 0.556735 0.603893
v -0.006631 0.010000 0.007485
vn -0.685289 0.556117 0.470226
v -0.008230 0.010000 0.005681
vn -0.769070 0.556398 0.314567
v -0.009350 0.010000 0.003546
vn -0.790576 0.601836 0.113067
v -0.009927 0.010000 0.001205
vn -0.884656 0.448748 -0.126523
v -0.009927 0.010000 -0.001205
vn 0.000000 -1.000000 0.000000
v 0.009848 0.000000 -0.003005
vn 0.000000 0.000000 0.000000
v 0.000475 0.000000 0.006182
vn 0.000000 -1.000000 0.000000
v 0.006837 0.000000 0.002557
vn 0.000000 -1.000000 0.000000
v 0.010325 0.000000 0.003538
vn 0.000000 0.000000 0.000000
v 0.010364 0.000000 0.002212
vn 0.000000 0.000000 0.000000
v 0.008693 0.000000 0.001555
vn 0.000000 -1.000000 0.000000
v 0.008297 0.000000 -0.000775
vn 0.000000 -1.000000 0.000000
v -0.010076 0.000000 -0.001924
vn 0.000000 -1.000000 0.000000
v -0.010575 0.000000 -0.003000
vn 0.000000 -1.000000 0.000000
v -0.010364 0.000000 -0.003788
vn 0.000000 -1.000000 0.000000
v -0.009787 0.000000 -0.004364
vn -0.138208 -0.745615 0.651887
v -0.009000 0.000000 -0.004575
vn 0.000000 -1.000000 0.000000
v -0.006121 0.000000 -0.002129
vn 0.000000 -0.857493 -0.514496
v -0.000718 0.000000 -0.010000
vn 0.000000 -1.000000 0.000000
v -0.008250 0.000000 -0.001463
vn 0.000000 -1.000000 0.000000
v 0.005462 0.000000 -0.001325
vn 0.000000 0.000000 0.000000
v -0.007689 0.000000 0.001582
vn 0.000000 0.000000 0.000000
v -0.010364 0.000000 0.002212
vn 0.000000 1.000000 0.000000
v -0.009787 0.000000 0.001636
vn 0.000000 1.000000 0.000000
v -0.010128 0.000000 0.003879
vn 0.311084 0.049285 0.949104
v -0.000564 0.000000 0.004773
vn -0.401467 -0.674803 0.619245
v 0.000564 0.006500 0.004773
vn -0.992387 0.024783 0.120641
v 0.001345 0.000000 0.006125
vn -0.592653 -0.492950 -0.636995
v 0.000879 0.006500 0.007128
vn 0.003782 -0.045802 -0.998943
v 0.000197 0.000000 0.007417
vn 0.877066 -0.057409 -0.476928
v -0.001364 0.000000 0.006787
vn 0.841953 -0.453194 0.292798
v -0.001325 0.006500 0.005462
vn 0.422682 -0.621224 -0.659864
v -0.000538 0.006500 0.006538
vn 0.174565 0.015626 0.984522
v 0.008462 0.000000 0.001675
vn -0.608806 -0.437571 0.661730
v 0.010128 0.006500 0.002121
vn -0.981998 -0.036049 0.185420
v 0.010325 0.000000 0.002462
vn -0.872535 -0.055346 -0.485407
v 0.010076 0.000000 0.004076
vn -0.395409 -0.430211 -0.811523
v 0.009394 0.006500 0.004469
vn 0.207402 -0.001348 -0.978255
v 0.009000 0.000000 0.004575
vn 0.603993 -0.629016 -0.489419
v 0.007872 0.006500 0.003879
vn 0.994093 0.008897 -0.108168
v 0.007675 0.000000 0.003538
vn 0.577068 -0.656970 0.485163
v 0.008121 0.006500 0.001871
vn -0.659854 -0.732100 -0.169182
v 0.009682 0.006500 0.003394
vn -0.602861 -0.674905 0.425514
v 0.010076 0.006500 -0.004076
vn -0.090623 0.025986 0.995546
v 0.009394 0.000000 -0.004469
vn -0.496894 -0.449147 -0.742538
v 0.009663 0.006500 -0.001944
vn -0.983679 0.024206 -0.178296
v 0.010246 0.000000 -0.002955
vn 0.271763 -0.050958 -0.961014
v 0.008606 0.000000 -0.001531
vn 0.637097 -0.424407 0.643418
v 0.008337 0.006500 -0.004057
vn 0.996590 -0.037035 0.073740
v 0.007754 0.000000 -0.003046
vn 0.639426 -0.644552 -0.419150
v 0.008462 0.006500 -0.002462
vn -0.603993 -0.629016 0.489419
v -0.007872 0.006500 -0.003879
vn -0.994093 0.008897 0.108168
v -0.007675 0.000000 -0.003538
vn -0.577068 -0.656970 -0.485163
v -0.008121 0.006500 -0.001871
vn -0.174565 0.015626 -0.984522
v -0.008462 0.000000 -0.001675
vn 0.608806 -0.437571 -0.661730
v -0.010128 0.006500 -0.002121
vn 0.981998 -0.036049 -0.185420
v -0.010325 0.000000 -0.002462
vn 0.395409 -0.430211 0.811523
v -0.009394 0.006500 -0.004469
vn 0.872535 -0.055346 0.485407
v -0.010076 0.000000 -0.004076
vn 0.659854 -0.732100 0.169182
v -0.009682 0.006500 -0.003394
vn 0.132382 0.010084 0.991148
v -0.000197 0.000000 -0.007417
vn -0.428729 -0.635913 0.641721
v 0.001076 0.006500 -0.007076
vn -0.928548 0.004039 0.371191
v 0.001364 0.000000 -0.006787
vn -0.894780 -0.357760 -0.267163
v 0.001325 0.006500 -0.005462
vn -0.767798 -0.000009 -0.640692
v 0.001129 0.000000 -0.005121
vn -0.240224 -0.008833 -0.970677
v 0.000000 0.006500 -0.004425
vn 0.319254 0.028383 -0.947244
v 0.000000 0.000000 -0.004425
vn 0.809489 -0.346016 -0.474343
v -0.001129 0.006500 -0.005121
vn 0.997449 0.026318 0.066357
v -0.001345 0.000000 -0.006125
vn 0.532630 -0.638294 0.555775
v -0.000879 0.006500 -0.007128
vn 0.000000 -1.000000 0.000000
v 0.000000 0.006500 -0.005212
vn -0.292798 -0.453194 0.841953
v -0.005462 0.006500 -0.001325
vn -0.949104 0.049285 0.311084
v -0.004773 0.000000 -0.000564
vn -0.619245 -0.674803 -0.401467
v -0.004773 0.006500 0.000564
vn -0.120641 0.024783 -0.992387
v -0.006125 0.000000 0.001345
vn 0.636995 -0.492950 -0.592653
v -0.007128 0.006500 0.000879
vn 0.998943 -0.045802 0.003782
v -0.007417 0.000000 0.000197
vn 0.476928 -0.057409 0.877066
v -0.006787 0.000000 -0.001364
vn 0.659864 -0.621224 0.422682
v -0.006538 0.006500 -0.000538
vn 0.120641 0.024783 0.992387
v 0.006125 0.000000 -0.001345
vn -0.636995 -0.492950 0.592653
v 0.007128 0.006500 -0.000879
vn -0.998943 -0.045802 -0.003782
v 0.007417 0.000000 -0.000197
vn -0.476928 -0.057409 -0.877066
v 0.006787 0.000000 0.001364
vn 0.292798 -0.453194 -0.841953
v 0.005462 0.006500 0.001325
vn 0.949104 0.049285 -0.311084
v 0.004773 0.000000 0.000564
vn 0.619245 -0.674803 0.401467
v 0.004773 0.006500 -0.000564
vn -0.659864 -0.621224 -0.422682
v 0.006538 0.006500 0.000538
vn -0.271763 -0.050958 0.961014
v -0.008606 0.000000 0.001531
vn -0.637097 -0.424407 -0.643418
v -0.008337 0.006500 0.004057
vn -0.996590 -0.037035 -0.073740
v -0.007754 0.000000 0.003046
vn 0.602861 -0.674905 -0.425514
v -0.010076 0.006500 0.004076
vn 0.090623 0.025986 -0.995546
v -0.009394 0.000000 0.004469
vn 0.496894 -0.449147 0.742538
v -0.009663 0.006500 0.001944
vn 0.983679 0.024206 0.178296
v -0.010246 0.000000 0.002955
vn -0.639426 -0.644552 0.419150
v -0.008462 0.006500 0.002462
vn -0.199210 0.096394 -0.975204
v -0.002065 0.040000 -0.009778
vn -0.595751 0.094891 -0.797544
v -0.006173 0.040000 -0.007822
vn -0.425124 0.131803 -0.895487
v -0.004034 0.040000 -0.009126
vn -0.748214 0.073840 -0.659336
v -0.007660 0.040000 -0.006428
vn -0.856899 0.104086 -0.504867
v -0.008445 0.040000 -0.005340
vn -0.925310 0.159881 -0.343859
v -0.009374 0.040000 -0.003483
vn -1.000000 -0.000387 0.000000
v -0.010000 0.040000 0.000000
vn -0.967863 0.176308 -0.179325
v -0.009887 0.040000 -0.001470
vn -0.976929 0.098940 0.189261
v -0.009887 0.040000 0.001470
vn -0.951227 0.107075 0.289314
v -0.009374 0.040000 0.003483
vn -0.870810 0.061134 0.487804
v -0.008660 0.040000 0.005000
vn -0.766067 0.125989 0.630292
v -0.007945 0.040000 0.006055
vn -0.633230 0.118702 0.764807
v -0.006529 0.040000 0.007573
vn -0.343297 0.115514 0.932096
v -0.003420 0.040000 0.009397
vn -0.476656 0.204090 0.855071
v -0.004824 0.040000 0.008757
vn -0.191927 0.062715 0.979403
v -0.002065 0.040000 0.009778
vn 0.000000 0.000000 1.000000
v 0.000000 0.040000 0.010000
vn 0.345366 0.059871 0.936557
v 0.003420 0.040000 0.009397
vn 0.162655 0.111254 0.980391
v 0.002065 0.040000 0.009778
vn 0.626359 0.130781 0.768486
v 0.006529 0.040000 0.007573
vn 0.508052 0.073968 0.858145
v 0.004824 0.040000 0.008757
vn 0.758757 0.065165 0.648106
v 0.007660 0.040000 0.006428
vn 0.857503 0.088746 0.506768
v 0.008445 0.040000 0.005340
vn 0.898753 0.092658 0.428552
v 0.009350 0.040000 0.003546
vn 0.957752 0.034640 0.285502
v 0.009397 0.040000 0.003420
vn 1.000000 -0.000387 0.000000
v 0.010000 0.040000 -0.000000
vn 0.983165 0.095429 0.155823
v 0.009887 0.040000 0.001470
vn 0.976578 0.102603 -0.189126
v 0.009887 0.040000 -0.001470
vn 0.934932 0.150508 -0.321324
v 0.009374 0.040000 -0.003483
vn 0.858183 0.091120 -0.505191
v 0.008445 0.040000 -0.005340
vn 0.756909 0.097100 -0.646267
v 0.007660 0.040000 -0.006428
vn 0.623429 0.137262 -0.769737
v 0.006529 0.040000 -0.007573
vn 0.345352 0.064847 -0.936230
v 0.003420 0.040000 -0.009397
vn 0.528759 0.146624 -0.836012
v 0.004824 0.040000 -0.008757
vn 0.000000 0.000000 -1.000000
v 0.000000 0.040000 -0.010000
vn 0.195204 0.092843 -0.976358
v 0.002065 0.040000 -0.009778
vn 0.890202 0.429872 -0.150834
v 0.009044 0.043164 -0.000695
vn 0.418508 0.285100 -0.862304
v 0.004293 0.042157 -0.008699
vn 0.046868 0.341337 -0.938772
v 0.000418 0.041289 -0.009775
vn -0.373901 0.437047 -0.818039
v -0.002927 0.043591 -0.008668
vn -0.694821 0.318719 -0.644703
v -0.007080 0.042157 -0.006477
vn -0.238959 0.342903 0.908469
v -0.002355 0.041723 0.009237
vn 0.335858 0.285902 0.897474
v 0.003731 0.041736 0.009003
vn 0.737579 0.275575 0.616471
v 0.007255 0.042157 0.006354
vn 0.922988 0.238499 0.302012
v 0.009254 0.041736 0.003368
vn 0.458495 0.537097 0.708032
v 0.004641 0.044962 0.007083
vn -0.601195 0.495329 0.627068
v -0.006176 0.044223 0.006160
vn -0.856953 0.305631 0.414996
v -0.008794 0.042157 0.004089
vn 0.750556 0.336858 -0.568500
v 0.007759 0.042578 -0.005316
vn -0.878810 0.459797 0.127589
v -0.009050 0.043065 0.000950
vn -0.793593 0.509123 -0.333173
v -0.007799 0.044433 -0.003472
vn -0.057227 0.576174 0.815321
v -0.000936 0.045338 0.008132
vn -0.123109 0.676588 -0.725998
v -0.000650 0.046379 -0.007459
vn 0.229973 0.557751 -0.797513
v 0.002468 0.045714 -0.007755
vn 0.755725 0.574099 0.315103
v 0.007694 0.045141 0.003075
vn -0.182586 0.898101 0.400095
v -0.001901 0.048620 0.004037
vn -0.614475 0.782463 0.100856
v -0.005433 0.048036 0.001234
vn 0.219965 0.861128 -0.458339
v 0.001826 0.048410 -0.004787
vn 0.606902 0.588005 -0.534715
v 0.004953 0.046022 -0.005954
vn 0.641338 0.759838 -0.106449
v 0.006332 0.047323 -0.001525
vn 0.358956 0.817631 0.450145
v 0.003470 0.047602 0.004969
vn -0.495403 0.751684 -0.435370
v -0.004671 0.047756 -0.003522
vn -0.172605 0.963479 -0.204733
v -0.001491 0.049373 -0.002282
vn 0.232298 0.972235 0.028222
v 0.002625 0.049446 -0.000168
# 188 vertices, 0 vertices normals

f 1//1 2//2 3//3
f 3//3 4//4 1//1
f 1//1 4//4 5//5
f 1//1 5//5 6//6
f 7//7 8//8 12//12
f 12//12 8//8 9//9
f 9//9 10//10 12//12
f 12//12 10//10 11//11
f 6//6 13//13 1//1
f 1//1 13//13 14//14
f 1//1 14//14 12//12
f 12//12 14//14 15//15
f 12//12 15//15 7//7
f 12//12 16//16 1//1
f 16//16 17//17 1//1
f 1//1 17//17 2//2
f 2//2 17//17 48//48
f 2//2 48//48 18//18
f 18//18 48//48 19//19
f 19//19 20//20 18//18
f 18//18 20//20 21//21
f 21//21 20//20 12//12
f 16//16 12//12 20//20
f 21//21 22//22 23//23
f 24//24 25//25 18//18
f 18//18 25//25 26//26
f 26//26 27//27 18//18
f 18//18 27//27 28//28
f 18//18 28//28 2//2
f 23//23 29//29 21//21
f 21//21 29//29 30//30
f 21//21 30//30 31//31
f 31//31 32//32 21//21
f 21//21 32//32 33//33
f 21//21 33//33 18//18
f 18//18 33//33 34//34
f 18//18 34//34 24//24
f 48//48 36//36 20//20
f 48//48 37//37 16//16
f 41//41 16//16 40//40
f 37//37 38//38 16//16
f 16//16 38//38 39//39
f 16//16 39//39 40//40
f 17//17 35//35 48//48
f 35//35 17//17 16//16
f 35//35 16//16 41//41
f 49//49 51//51 20//20
f 49//49 20//20 42//42
f 42//42 20//20 43//43
f 43//43 20//20 44//44
f 44//44 20//20 19//19
f 44//44 19//19 45//45
f 45//45 19//19 46//46
f 46//46 19//19 48//48
f 46//46 48//48 47//47
f 48//48 51//51 47//47
f 35//35 41//41 48//48
f 48//48 41//41 50//50
f 48//48 50//50 37//37
f 54//54 20//20 52//52
f 52//52 20//20 53//53
f 53//53 20//20 51//51
f 20//20 54//54 48//48
f 54//54 51//51 48//48
f 36//36 48//48 20//20
f 20//20 48//48 16//16
f 56//56 55//55 57//57
f 56//56 57//57 58//58
f 58//58 57//57 59//59
f 58//58 59//59 62//62
f 62//62 59//59 60//60
f 62//62 60//60 61//61
f 61//61 60//60 55//55
f 61//61 55//55 56//56
f 62//62 61//61 56//56
f 62//62 56//56 58//58
f 71//71 63//63 64//64
f 64//64 63//63 65//65
f 64//64 65//65 72//72
f 72//72 65//65 66//66
f 72//72 66//66 67//67
f 67//67 66//66 68//68
f 67//67 68//68 69//69
f 69//69 68//68 70//70
f 69//69 70//70 71//71
f 71//71 70//70 63//63
f 72//72 67//67 69//69
f 72//72 71//71 64//64
f 72//72 69//69 71//71
f 78//78 74//74 73//73
f 73//73 74//74 76//76
f 73//73 76//76 75//75
f 75//75 76//76 77//77
f 75//75 77//77 80//80
f 80//80 77//77 79//79
f 80//80 79//79 78//78
f 78//78 79//79 74//74
f 80//80 78//78 73//73
f 80//80 73//73 75//75
f 87//87 46//46 81//81
f 81//81 46//46 82//82
f 81//81 82//82 83//83
f 83//83 82//82 84//84
f 83//83 84//84 85//85
f 85//85 84//84 86//86
f 85//85 86//86 89//89
f 89//89 86//86 88//88
f 89//89 88//88 87//87
f 87//87 88//88 46//46
f 89//89 83//83 85//85
f 89//89 81//81 83//83
f 89//89 87//87 81//81
f 99//99 90//90 91//91
f 91//91 90//90 92//92
f 91//91 92//92 93//93
f 93//93 92//92 94//94
f 93//93 94//94 95//95
f 95//95 94//94 96//96
f 95//95 96//96 97//97
f 97//97 96//96 98//98
f 97//97 98//98 99//99
f 99//99 98//98 90//90
f 100//100 91//91 93//93
f 100//100 99//99 91//91
f 100//100 97//97 99//99
f 101//101 102//102 103//103
f 103//103 102//102 104//104
f 103//103 104//104 105//105
f 105//105 104//104 106//106
f 105//105 106//106 108//108
f 108//108 106//106 107//107
f 108//108 107//107 101//101
f 101//101 107//107 102//102
f 108//108 103//103 105//105
f 108//108 101//101 103//103
f 115//115 109//109 110//110
f 110//110 109//109 111//111
f 110//110 111//111 116//116
f 116//116 111//111 112//112
f 116//116 112//112 113//113
f 113//113 112//112 114//114
f 113//113 114//114 115//115
f 115//115 114//114 109//109
f 116//116 115//115 110//110
f 116//116 113//113 115//115
f 122//122 117//117 124//124
f 124//124 117//117 119//119
f 124//124 119//119 118//118
f 118//118 119//119 121//121
f 118//118 121//121 120//120
f 120//120 121//121 123//123
f 120//120 123//123 122//122
f 122//122 123//123 117//117
f 124//124 120//120 122//122
f 124//124 118//118 120//120
f 2//2 28//28 125//125
f 27//27 127//127 28//28
f 28//28 127//127 125//125
f 26//26 126//126 27//27
f 27//27 126//126 127//127
f 126//126 26//26 128//128
f 128//128 26//26 25//25
f 128//128 25//25 129//129
f 129//129 25//25 24//24
f 129//129 24//24 130//130
f 130//130 24//24 34//34
f 130//130 34//34 132//132
f 33//33 131//131 34//34
f 34//34 131//131 132//132
f 134//134 133//133 33//33
f 33//33 133//133 131//131
f 134//134 33//33 32//32
f 134//134 32//32 135//135
f 135//135 32//32 31//31
f 135//135 31//31 136//136
f 136//136 31//31 30//30
f 136//136 30//30 137//137
f 137//137 30//30 29//29
f 137//137 29//29 139//139
f 23//23 138//138 29//29
f 29//29 138//138 139//139
f 22//22 140//140 23//23
f 23//23 140//140 138//138
f 11//11 143//143 22//22
f 22//22 143//143 141//141
f 22//22 141//141 140//140
f 10//10 142//142 11//11
f 11//11 142//142 143//143
f 9//9 144//144 145//145
f 9//9 145//145 10//10
f 10//10 145//145 142//142
f 144//144 9//9 146//146
f 146//146 9//9 8//8
f 146//146 8//8 147//147
f 147//147 8//8 7//7
f 147//147 7//7 148//148
f 148//148 7//7 149//149
f 149//149 7//7 15//15
f 149//149 15//15 151//151
f 14//14 150//150 15//15
f 15//15 150//150 151//151
f 153//153 152//152 14//14
f 14//14 152//152 150//150
f 153//153 14//14 13//13
f 153//153 13//13 154//154
f 154//154 13//13 6//6
f 154//154 6//6 155//155
f 155//155 6//6 5//5
f 155//155 5//5 156//156
f 156//156 5//5 4//4
f 156//156 4//4 158//158
f 3//3 157//157 4//4
f 4//4 157//157 158//158
f 125//125 159//159 2//2
f 2//2 159//159 160//160
f 2//2 160//160 3//3
f 3//3 160//160 157//157
f 180//180 188//188 187//187
f 161//161 152//152 153//153
f 161//161 153//153 173//173
f 153//153 154//154 173//173
f 154//154 155//155 173//173
f 173//173 155//155 156//156
f 173//173 156//156 158//158
f 173//173 158//158 162//162
f 158//158 157//157 162//162
f 162//162 157//157 160//160
f 162//162 160//160 163//163
f 163//163 125//125 164//164
f 125//125 127//127 164//164
f 164//164 127//127 165//165
f 127//127 126//126 165//165
f 126//126 128//128 165//165
f 165//165 128//128 129//129
f 165//165 129//129 130//130
f 165//165 130//130 175//175
f 175//175 130//130 132//132
f 175//175 132//132 174//174
f 174//174 133//133 134//134
f 174//174 134//134 172//172
f 134//134 135//135 172//172
f 172//172 135//135 136//136
f 172//172 136//136 171//171
f 171//171 136//136 137//137
f 171//171 137//137 139//139
f 171//171 139//139 166//166
f 139//139 138//138 166//166
f 166//166 138//138 140//140
f 166//166 143//143 167//167
f 143//143 142//142 167//167
f 167//167 142//142 145//145
f 167//167 145//145 144//144
f 167//167 144//144 168//168
f 144//144 146//146 168//168
f 168//168 146//146 147//147
f 168//168 147//147 148//148
f 168//168 148//148 169//169
f 148//148 149//149 169//169
f 169//169 149//149 151//151
f 169//169 151//151 161//161
f 161//161 179//179 169//169
f 169//169 179//179 168//168
f 168//168 170//170 167//167
f 167//167 170//170 176//176
f 167//167 176//176 166//166
f 168//168 179//179 170//170
f 166//166 176//176 171//171
f 171//171 174//174 172//172
f 165//165 175//175 164//164
f 164//164 177//177 163//163
f 163//163 177//177 178//178
f 163//163 178//178 162//162
f 162//162 178//178 183//183
f 162//162 183//183 173//173
f 173//173 183//183 161//161
f 170//170 185//185 176//176
f 174//174 171//171 181//181
f 174//174 181//181 175//175
f 175//175 186//186 164//164
f 164//164 186//186 177//177
f 183//183 184//184 161//161
f 161//161 184//184 179//179
f 179//179 184//184 185//185
f 179//179 185//185 170//170
f 176//176 185//185 180//180
f 176//176 180//180 171//171
f 175//175 181//181 186//186
f 177//177 182//182 178//178
f 178//178 182//182 183//183
f 171//171 180//180 181//181
f 186//186 187//187 177//177
f 177//177 187//187 182//182
f 183//183 182//182 184//184
f 184//184 182//182 188//188
f 184//184 188//188 185//185
f 185//185 188//188 180//180
f 186//186 181//181 187//187
f 182//182 187//187 188//188
f 180//180 187//187 181//181
# 299 faces, 0 coords texture

# End of File
